
<svg version="1.0" xmlns="http://www.w3.org/2000/svg" width="1019px" height="933px" viewBox="0 0 10190 9330" preserveAspectRatio="xMidYMid meet">
<g id="layer1" fill="#fff" stroke="none">
 <path d="M1755 8460 c-3 -5 -21 -10 -39 -10 -32 0 -86 -39 -86 -62 0 -10 -25 -38 -34 -38 -3 0 -6 6 -6 14 0 8 -23 26 -52 40 -41 21 -67 26 -123 26 -66 0 -75 -2 -103 -30 -18 -16 -36 -30 -41 -30 -18 0 -61 -54 -61 -76 0 -12 -4 -26 -10 -29 -5 -3 -10 -30 -10 -60 0 -30 -4 -57 -10 -60 -26 -16 2 -95 33 -95 4 0 21 -13 39 -30 17 -16 35 -30 40 -30 51 0 52 -132 1 -188 -7 -7 -20 -30 -30 -50 -9 -20 -20 -39 -25 -42 -11 -9 -88 -161 -88 -176 0 -7 -9 -29 -20 -49 -11 -20 -20 -42 -20 -49 0 -8 -13 -40 -30 -71 -16 -31 -30 -63 -30 -71 0 -7 -9 -29 -20 -49 -11 -20 -20 -42 -20 -50 0 -8 -9 -30 -20 -50 -16 -28 -20 -54 -20 -127 0 -58 -4 -88 -9 -83 -6 6 -27 43 -48 84 -25 48 -49 81 -68 92 -33 19 -120 25 -130 9 -3 -5 -23 -10 -44 -10 -35 0 -111 -31 -146 -60 -8 -7 -15 -23 -15 -36 0 -12 -4 -26 -10 -29 -13 -8 -13 -142 0 -150 6 -3 10 -26 10 -50 0 -38 6 -49 50 -94 l50 -51 0 -189 c0 -186 0 -189 -23 -204 -13 -8 -34 -17 -48 -19 -22 -3 -24 -8 -27 -62 -2 -32 2 -64 7 -69 6 -6 11 -39 11 -73 0 -54 3 -65 30 -92 17 -18 30 -36 30 -41 0 -5 16 -25 36 -45 35 -35 39 -36 108 -36 40 0 77 -5 82 -10 6 -6 41 -10 80 -8 65 3 69 4 72 28 2 14 8 29 13 34 5 6 9 24 9 42 0 31 21 60 33 47 4 -3 7 -21 7 -39 0 -36 31 -99 61 -125 11 -9 19 -21 19 -26 0 -16 35 -43 57 -43 33 0 83 30 83 50 0 10 4 21 9 24 11 7 23 -25 30 -84 6 -43 8 -45 41 -48 19 -2 39 -8 45 -13 13 -12 302 -12 310 1 3 6 21 10 40 10 19 0 37 5 40 10 3 6 26 10 50 10 24 0 47 5 50 10 3 6 21 10 40 10 19 0 37 5 40 10 3 6 26 10 50 10 24 0 47 5 50 10 3 6 21 10 40 10 19 0 37 5 40 10 3 6 21 10 40 10 19 0 37 5 40 10 3 6 21 10 40 10 19 0 37 5 40 10 3 6 26 10 50 10 24 0 47 5 50 10 3 6 21 10 40 10 19 0 37 5 40 10 3 6 21 10 40 10 19 0 37 5 40 10 3 6 21 10 40 10 19 0 37 5 40 10 3 6 28 10 55 10 27 0 52 -4 55 -10 3 -5 39 -10 80 -10 41 0 77 -4 80 -10 3 -5 35 -10 70 -10 35 0 67 -4 70 -10 3 -5 26 -10 50 -10 24 0 47 -4 50 -10 3 -5 17 -10 31 -10 16 0 24 -6 24 -17 0 -21 -42 -43 -81 -43 -15 0 -31 -4 -34 -10 -3 -5 -26 -10 -50 -10 -24 0 -47 -4 -50 -10 -3 -5 -17 -10 -30 -10 -19 0 -31 -15 -69 -93 -25 -50 -46 -100 -46 -109 0 -9 -4 -20 -10 -23 -5 -3 -10 -17 -10 -30 0 -13 -4 -27 -10 -30 -5 -3 -10 -21 -10 -40 0 -19 -4 -37 -10 -40 -6 -3 -10 -17 -10 -30 0 -13 -4 -27 -10 -30 -5 -3 -10 -17 -10 -30 0 -13 -5 -27 -10 -30 -6 -3 -10 -17 -10 -30 0 -13 -5 -27 -10 -30 -6 -3 -10 -21 -10 -40 0 -19 -4 -37 -10 -40 -5 -3 -10 -17 -10 -30 0 -13 -5 -27 -10 -30 -13 -8 -13 -182 0 -190 6 -3 10 -41 10 -85 0 -61 5 -87 22 -119 12 -23 25 -41 30 -41 4 0 8 -6 8 -13 0 -7 8 -22 18 -33 9 -10 28 -40 41 -66 13 -27 28 -48 33 -48 4 0 8 -6 8 -13 0 -7 8 -22 18 -33 9 -10 23 -31 31 -46 7 -14 34 -37 60 -50 25 -12 55 -31 65 -40 11 -10 26 -18 33 -18 7 0 13 -4 13 -8 0 -5 21 -20 48 -33 26 -13 49 -27 52 -30 13 -18 84 -49 110 -49 16 0 32 -4 35 -10 3 -5 39 -10 80 -10 41 0 77 -4 80 -10 3 -5 39 -10 80 -10 41 0 77 -4 80 -10 3 -6 48 -10 100 -10 52 0 97 -4 100 -10 3 -6 48 -10 100 -10 52 0 97 -4 100 -10 3 -5 28 -10 55 -10 34 0 64 -9 105 -30 31 -16 63 -30 70 -30 7 0 39 -13 70 -30 31 -16 62 -30 69 -30 6 0 84 -37 174 -81 l162 -82 -6 -36 c-4 -20 -10 -40 -15 -46 -5 -5 -9 -19 -9 -31 0 -13 -4 -26 -10 -29 -5 -3 -10 -17 -10 -30 0 -13 -5 -27 -10 -30 -6 -3 -10 -21 -10 -40 0 -19 -4 -37 -10 -40 -6 -3 -10 -17 -10 -30 0 -13 -4 -27 -10 -30 -6 -3 -10 -17 -10 -30 0 -13 -4 -27 -10 -30 -13 -8 -13 -142 0 -150 6 -3 10 -35 10 -70 0 -51 -6 -74 -30 -120 -17 -31 -30 -65 -30 -75 0 -11 -4 -22 -10 -25 -5 -3 -10 -21 -10 -40 0 -19 -4 -37 -10 -40 -6 -3 -10 -17 -10 -30 0 -13 -4 -27 -10 -30 -6 -3 -10 -20 -10 -36 0 -29 -37 -79 -59 -79 -12 0 -41 -57 -41 -81 0 -10 -5 -21 -10 -24 -13 -8 -13 -82 0 -90 6 -3 10 -26 10 -50 0 -24 5 -47 10 -50 6 -3 10 -30 10 -60 0 -30 5 -57 10 -60 6 -3 10 -26 10 -50 0 -24 5 -47 10 -50 6 -3 10 -17 10 -30 0 -18 36 -61 135 -160 75 -74 140 -135 145 -135 6 0 33 -23 61 -50 28 -28 55 -50 60 -50 5 0 32 -23 60 -50 28 -28 55 -50 60 -50 5 0 32 -23 60 -50 28 -28 55 -50 60 -50 18 0 59 -49 59 -69 0 -11 5 -23 10 -26 6 -3 10 -21 10 -40 0 -19 5 -37 10 -40 6 -3 10 -14 10 -24 0 -10 23 -62 50 -116 28 -54 50 -106 50 -116 0 -10 5 -21 10 -24 6 -3 10 -21 10 -40 0 -19 5 -37 10 -40 6 -3 10 -17 10 -30 0 -13 5 -27 10 -30 6 -3 10 -19 10 -34 0 -59 22 -79 156 -147 71 -35 136 -64 146 -64 9 0 20 -4 23 -10 3 -5 26 -10 50 -10 24 0 47 -5 50 -10 3 -6 21 -10 40 -10 19 0 37 -5 40 -10 8 -13 102 -13 110 0 3 6 41 10 84 10 85 0 142 19 140 48 -1 28 -52 114 -74 126 -11 6 -22 14 -25 17 -3 4 -25 18 -50 32 -38 21 -52 38 -87 107 -24 45 -43 89 -43 96 0 17 75 20 85 4 3 -5 33 -10 65 -10 l58 0 25 50 25 51 -29 56 c-27 51 -73 103 -91 103 -5 0 -27 18 -49 40 -23 22 -48 40 -55 40 -8 0 -14 4 -14 9 0 4 -57 37 -127 72 -121 60 -173 96 -173 118 0 5 -21 31 -48 58 -36 37 -70 94 -146 246 -54 109 -104 204 -110 210 -6 7 -58 105 -114 218 l-103 205 3 88 3 88 45 25 c25 14 47 28 50 32 3 3 17 12 32 20 14 7 37 34 50 60 12 25 31 55 40 65 10 11 18 26 18 33 0 7 4 13 8 13 5 0 20 21 33 48 13 26 32 56 41 66 10 11 18 26 18 33 0 7 4 13 8 13 5 0 15 12 23 28 8 15 22 36 32 46 9 11 17 26 17 33 0 7 4 13 8 13 5 0 15 12 23 28 8 15 22 36 32 46 9 11 17 26 17 33 0 7 4 13 8 13 5 0 15 12 23 28 8 15 22 36 32 46 9 11 17 26 17 33 0 7 4 13 8 13 5 0 20 21 33 48 13 26 30 53 37 60 6 8 17 22 23 33 5 11 14 17 19 14 11 -7 40 -64 40 -80 0 -7 18 -46 39 -88 31 -61 62 -99 156 -192 l116 -115 74 0 c41 0 77 -4 80 -10 8 -13 302 -13 310 0 3 6 40 10 80 10 l74 0 116 115 c83 84 115 122 115 140 0 13 4 27 10 30 6 3 10 21 10 40 0 19 4 37 10 40 5 3 10 26 10 50 0 24 4 47 10 50 5 3 10 21 10 40 0 19 5 37 10 40 17 10 11 72 -10 110 -11 20 -20 44 -20 55 0 10 -4 22 -10 25 -5 3 -10 14 -10 23 0 22 -80 182 -91 182 -5 0 -9 6 -9 14 0 7 -12 26 -27 43 -16 16 -33 38 -39 48 -13 23 -62 53 -87 54 -24 1 -58 37 -81 84 -18 39 -71 97 -88 97 -15 0 -38 27 -38 44 0 9 6 16 14 16 7 0 32 18 55 40 22 22 45 40 50 40 5 0 27 18 50 40 22 22 45 40 51 40 12 0 200 188 200 201 0 14 161 172 193 188 15 8 27 18 27 23 0 4 11 8 24 8 14 0 28 5 31 10 3 6 21 10 40 10 19 0 37 4 40 10 3 6 26 10 50 10 24 0 47 5 50 10 3 6 26 10 50 10 24 0 47 5 50 10 3 6 21 10 40 10 19 0 37 5 40 10 3 6 26 10 50 10 24 0 47 4 50 10 3 6 21 10 40 10 19 0 37 5 40 10 3 6 26 10 50 10 24 0 47 5 50 10 3 6 26 10 50 10 24 0 47 5 50 10 3 6 26 10 50 10 24 0 47 5 50 10 3 6 30 10 60 10 30 0 57 5 60 10 3 6 26 10 50 10 24 0 47 5 50 10 3 6 24 10 46 10 21 0 48 6 60 13 17 10 22 9 35 -8 8 -11 20 -27 27 -35 6 -8 23 -36 36 -63 13 -26 28 -47 33 -47 4 0 8 -6 8 -13 0 -7 8 -22 18 -33 9 -10 26 -37 37 -59 18 -34 35 -47 115 -87 90 -46 151 -60 165 -38 3 5 30 10 60 10 30 0 57 5 60 10 3 6 25 10 49 10 23 0 46 4 52 9 5 5 20 11 34 13 18 2 26 10 28 28 2 14 8 29 13 35 5 5 9 24 9 41 0 18 5 36 10 39 6 3 10 14 10 25 0 10 10 36 22 59 19 36 20 44 8 68 -8 16 -21 36 -29 46 -15 18 -66 23 -76 7 -3 -6 -21 -10 -39 -10 -17 0 -37 -5 -43 -11 -18 -18 -37 -5 -62 45 -13 25 -28 46 -33 46 -4 0 -8 6 -8 14 0 20 -160 181 -204 206 -20 11 -50 20 -66 20 -16 0 -32 5 -35 10 -3 6 -21 10 -40 10 -19 0 -37 5 -40 10 -3 6 -21 10 -40 10 -19 0 -37 5 -40 10 -3 6 -21 10 -40 10 -19 0 -37 5 -40 10 -3 6 -21 10 -40 10 -19 0 -37 5 -40 10 -3 6 -30 10 -60 10 -30 0 -57 5 -60 10 -3 6 -30 10 -60 10 -30 0 -57 5 -60 10 -3 6 -30 10 -60 10 -30 0 -57 5 -60 10 -3 6 -30 10 -60 10 -30 0 -57 5 -60 10 -4 6 -72 10 -170 10 -98 0 -166 4 -170 10 -4 6 -64 10 -149 10 l-142 0 -136 -68 c-127 -65 -142 -75 -236 -170 -96 -97 -123 -115 -137 -92 -3 6 -21 10 -40 10 -19 0 -37 5 -40 10 -3 6 -17 10 -30 10 -26 0 -105 -39 -105 -52 0 -4 -6 -8 -13 -8 -7 0 -22 -8 -33 -17 -10 -10 -31 -24 -46 -32 -16 -8 -28 -18 -28 -23 0 -4 -6 -8 -13 -8 -7 0 -22 -8 -33 -17 -10 -10 -31 -24 -46 -32 -16 -8 -28 -18 -28 -23 0 -4 -15 -8 -33 -8 -22 0 -95 31 -212 90 -98 49 -187 90 -196 90 -10 0 -21 5 -24 10 -3 6 -15 10 -25 10 -11 0 -35 9 -55 20 -20 11 -44 20 -55 20 -10 0 -22 5 -25 10 -4 6 -128 10 -340 10 -212 0 -336 4 -340 10 -3 6 -39 10 -80 10 -41 0 -77 5 -80 10 -12 19 -131 12 -170 -10 -38 -21 -100 -27 -110 -10 -3 6 -30 10 -60 10 -30 0 -57 5 -60 10 -3 6 -24 10 -46 10 -38 0 -77 15 -91 35 -9 12 2 97 13 109 5 6 9 25 9 42 0 18 5 36 10 39 6 3 10 21 10 40 0 19 5 37 10 40 6 3 10 21 10 40 0 19 5 37 10 40 6 3 10 21 10 40 0 19 4 37 10 40 5 3 10 21 10 40 0 19 5 37 10 40 13 8 13 242 0 250 -13 8 -13 242 0 250 6 3 10 30 10 60 0 30 5 57 10 60 6 3 10 30 10 60 0 30 4 57 10 60 6 3 10 19 10 34 0 15 27 81 60 146 58 115 71 157 50 170 -5 3 -10 21 -10 40 0 19 -4 37 -10 40 -6 3 -10 21 -10 40 0 19 -4 37 -10 40 -6 3 -10 17 -10 30 0 24 -100 135 -122 135 -5 0 -22 13 -37 29 -33 35 -94 71 -121 71 -10 0 -22 5 -25 10 -3 6 -21 10 -40 10 -19 0 -37 5 -40 10 -3 6 -17 10 -30 10 -13 0 -27 5 -30 10 -4 6 -59 10 -134 10 -113 0 -130 -2 -149 -20 -12 -11 -30 -20 -41 -20 -11 0 -23 -4 -26 -10 -3 -5 -21 -10 -40 -10 -19 0 -37 -4 -40 -10 -3 -5 -26 -10 -50 -10 -24 0 -47 -4 -50 -10 -3 -5 -21 -10 -40 -10 -19 0 -37 -4 -40 -10 -3 -5 -26 -10 -50 -10 -24 0 -47 -4 -50 -10 -3 -5 -21 -10 -40 -10 -19 0 -37 -4 -40 -10 -3 -5 -26 -10 -50 -10 -24 0 -47 -4 -50 -10 -3 -5 -26 -10 -50 -10 -24 0 -47 -4 -50 -10 -3 -5 -21 -10 -40 -10 -19 0 -37 -4 -40 -10 -3 -5 -25 -10 -49 -10 -23 0 -47 -5 -52 -10 -7 -7 -52 -10 -114 -8 l-103 3 -20 38 c-14 27 -25 37 -42 37 -13 0 -27 5 -30 10 -3 6 -21 10 -40 10 -19 0 -37 5 -40 10 -3 6 -15 10 -26 10 -21 0 -53 16 -83 43 -11 9 -26 17 -33 17 -7 0 -13 4 -13 8 0 5 -21 20 -47 33 -27 13 -57 32 -67 41 -11 10 -26 18 -33 18 -7 0 -13 4 -13 8 0 4 -13 16 -30 25 -16 10 -30 27 -30 37 0 10 -4 22 -10 25 -5 3 -10 30 -10 60 0 30 -4 57 -10 60 -5 3 -10 30 -10 60 0 30 -4 57 -10 60 -5 3 -10 21 -10 40 0 19 -4 37 -10 40 -5 3 -10 21 -10 40 0 19 -4 37 -10 40 -5 3 -10 14 -10 24 0 10 -14 45 -31 78 -27 53 -39 65 -92 92 -60 31 -139 42 -152 21z m1080 -1400 c3 -5 30 -10 60 -10 30 0 57 -4 60 -10 3 -5 44 -10 90 -10 46 0 87 -4 90 -10 4 -6 55 -10 120 -10 65 0 116 -4 120 -10 3 -5 19 -10 36 -10 16 0 29 -5 29 -12 0 -15 -71 -159 -86 -175 -8 -8 -40 -13 -83 -13 -38 0 -73 -4 -76 -10 -3 -6 -52 -10 -110 -10 -58 0 -107 -4 -110 -10 -3 -5 -21 -10 -40 -10 -19 0 -37 -4 -40 -10 -3 -5 -17 -10 -30 -10 -13 0 -27 -4 -30 -10 -3 -5 -21 -10 -40 -10 -19 0 -37 -4 -40 -10 -3 -5 -17 -10 -30 -10 -13 0 -27 -4 -30 -10 -3 -5 -21 -10 -40 -10 -19 0 -37 -4 -40 -10 -3 -5 -17 -10 -30 -10 -13 0 -27 -4 -30 -10 -3 -5 -21 -10 -40 -10 -19 0 -37 -4 -40 -10 -3 -5 -17 -10 -30 -10 -13 0 -27 -4 -30 -10 -3 -5 -21 -10 -39 -10 -17 0 -36 -4 -41 -9 -6 -4 -31 -11 -57 -14 -43 -6 -47 -5 -50 16 -3 19 -10 22 -52 25 -27 2 -54 -2 -59 -7 -6 -6 -30 -11 -54 -11 -38 0 -49 6 -94 50 -28 28 -55 50 -60 50 -12 0 -199 187 -199 199 0 5 -18 27 -40 50 -22 22 -40 46 -40 52 0 28 51 51 65 29 3 -5 17 -10 30 -10 13 0 27 -4 30 -10 4 -6 89 -10 222 -10 187 0 219 2 235 17 10 9 18 20 18 25 0 5 6 15 13 23 10 12 64 14 299 15 181 0 289 -4 293 -10z m-1878 -307 c-12 -12 -13 -9 -10 19 7 53 17 67 21 29 2 -20 -2 -39 -11 -48z m11 -389 c2 -21 8 -43 13 -48 5 -6 9 -32 9 -58 0 -51 -16 -63 -46 -34 -15 15 -21 166 -7 180 15 14 28 -2 31 -40z"/>
 </g>

</svg>